<mxfile host="app.diagrams.net" modified="2024-11-10T22:32:58.455Z" agent="Mozilla/5.0 (Windows NT 10.0; Win64; x64) AppleWebKit/537.36 (KHTML, like Gecko) Chrome/130.0.0.0 Safari/537.36" etag="xIeTOSI_7CQwTmsAjKHX" version="24.4.9" type="device">
  <diagram id="C5RBs43oDa-KdzZeNtuy" name="Page-1">
    <mxGraphModel dx="1050" dy="570" grid="1" gridSize="10" guides="1" tooltips="1" connect="1" arrows="1" fold="1" page="1" pageScale="1" pageWidth="827" pageHeight="1169" math="0" shadow="0">
      <root>
        <mxCell id="WIyWlLk6GJQsqaUBKTNV-0" />
        <mxCell id="WIyWlLk6GJQsqaUBKTNV-1" parent="WIyWlLk6GJQsqaUBKTNV-0" />
        <mxCell id="zYTko2imTGEfei1a7wET-5" style="edgeStyle=orthogonalEdgeStyle;rounded=0;orthogonalLoop=1;jettySize=auto;html=1;exitX=0.5;exitY=1;exitDx=0;exitDy=0;entryX=0.5;entryY=0;entryDx=0;entryDy=0;" edge="1" parent="WIyWlLk6GJQsqaUBKTNV-1" source="WIyWlLk6GJQsqaUBKTNV-3" target="zYTko2imTGEfei1a7wET-2">
          <mxGeometry relative="1" as="geometry" />
        </mxCell>
        <mxCell id="zYTko2imTGEfei1a7wET-6" style="edgeStyle=orthogonalEdgeStyle;rounded=0;orthogonalLoop=1;jettySize=auto;html=1;exitX=0.5;exitY=1;exitDx=0;exitDy=0;entryX=0.5;entryY=0;entryDx=0;entryDy=0;" edge="1" parent="WIyWlLk6GJQsqaUBKTNV-1" source="WIyWlLk6GJQsqaUBKTNV-3" target="zYTko2imTGEfei1a7wET-1">
          <mxGeometry relative="1" as="geometry" />
        </mxCell>
        <mxCell id="WIyWlLk6GJQsqaUBKTNV-3" value="HPPC Data" style="rounded=1;whiteSpace=wrap;html=1;fontSize=12;glass=0;strokeWidth=1;shadow=0;" parent="WIyWlLk6GJQsqaUBKTNV-1" vertex="1">
          <mxGeometry x="150" y="80" width="120" height="40" as="geometry" />
        </mxCell>
        <mxCell id="zYTko2imTGEfei1a7wET-9" style="edgeStyle=orthogonalEdgeStyle;rounded=0;orthogonalLoop=1;jettySize=auto;html=1;exitX=0.5;exitY=1;exitDx=0;exitDy=0;entryX=0.5;entryY=0;entryDx=0;entryDy=0;" edge="1" parent="WIyWlLk6GJQsqaUBKTNV-1" source="zYTko2imTGEfei1a7wET-2" target="zYTko2imTGEfei1a7wET-7">
          <mxGeometry relative="1" as="geometry" />
        </mxCell>
        <mxCell id="zYTko2imTGEfei1a7wET-2" value="Take Derivative of Current Wave form" style="rounded=0;whiteSpace=wrap;html=1;" vertex="1" parent="WIyWlLk6GJQsqaUBKTNV-1">
          <mxGeometry x="50" y="190" width="120" height="60" as="geometry" />
        </mxCell>
        <mxCell id="zYTko2imTGEfei1a7wET-11" style="edgeStyle=orthogonalEdgeStyle;rounded=0;orthogonalLoop=1;jettySize=auto;html=1;exitX=0.5;exitY=1;exitDx=0;exitDy=0;entryX=0.75;entryY=0;entryDx=0;entryDy=0;" edge="1" parent="WIyWlLk6GJQsqaUBKTNV-1" source="zYTko2imTGEfei1a7wET-1" target="zYTko2imTGEfei1a7wET-8">
          <mxGeometry relative="1" as="geometry" />
        </mxCell>
        <mxCell id="zYTko2imTGEfei1a7wET-1" value="Take Derivative of Voltage Wave form" style="rounded=0;whiteSpace=wrap;html=1;" vertex="1" parent="WIyWlLk6GJQsqaUBKTNV-1">
          <mxGeometry x="250" y="190" width="120" height="60" as="geometry" />
        </mxCell>
        <mxCell id="zYTko2imTGEfei1a7wET-13" style="edgeStyle=orthogonalEdgeStyle;rounded=0;orthogonalLoop=1;jettySize=auto;html=1;exitX=0.5;exitY=1;exitDx=0;exitDy=0;entryX=0.5;entryY=0;entryDx=0;entryDy=0;" edge="1" parent="WIyWlLk6GJQsqaUBKTNV-1" source="zYTko2imTGEfei1a7wET-7" target="zYTko2imTGEfei1a7wET-12">
          <mxGeometry relative="1" as="geometry" />
        </mxCell>
        <mxCell id="zYTko2imTGEfei1a7wET-7" value="Get Peaks" style="shape=parallelogram;perimeter=parallelogramPerimeter;whiteSpace=wrap;html=1;fixedSize=1;" vertex="1" parent="WIyWlLk6GJQsqaUBKTNV-1">
          <mxGeometry x="50" y="300" width="120" height="60" as="geometry" />
        </mxCell>
        <mxCell id="zYTko2imTGEfei1a7wET-14" style="edgeStyle=orthogonalEdgeStyle;rounded=0;orthogonalLoop=1;jettySize=auto;html=1;exitX=0.5;exitY=1;exitDx=0;exitDy=0;entryX=0.5;entryY=0;entryDx=0;entryDy=0;" edge="1" parent="WIyWlLk6GJQsqaUBKTNV-1" source="zYTko2imTGEfei1a7wET-8" target="zYTko2imTGEfei1a7wET-12">
          <mxGeometry relative="1" as="geometry" />
        </mxCell>
        <mxCell id="zYTko2imTGEfei1a7wET-8" value="Get Peaks" style="shape=parallelogram;perimeter=parallelogramPerimeter;whiteSpace=wrap;html=1;fixedSize=1;" vertex="1" parent="WIyWlLk6GJQsqaUBKTNV-1">
          <mxGeometry x="240" y="300" width="120" height="60" as="geometry" />
        </mxCell>
        <mxCell id="zYTko2imTGEfei1a7wET-16" style="edgeStyle=orthogonalEdgeStyle;rounded=0;orthogonalLoop=1;jettySize=auto;html=1;exitX=1;exitY=0.5;exitDx=0;exitDy=0;entryX=0;entryY=0.5;entryDx=0;entryDy=0;" edge="1" parent="WIyWlLk6GJQsqaUBKTNV-1" source="zYTko2imTGEfei1a7wET-12" target="zYTko2imTGEfei1a7wET-15">
          <mxGeometry relative="1" as="geometry" />
        </mxCell>
        <mxCell id="zYTko2imTGEfei1a7wET-12" value="Divide Values" style="shape=hexagon;perimeter=hexagonPerimeter2;whiteSpace=wrap;html=1;fixedSize=1;" vertex="1" parent="WIyWlLk6GJQsqaUBKTNV-1">
          <mxGeometry x="130" y="390" width="120" height="80" as="geometry" />
        </mxCell>
        <mxCell id="zYTko2imTGEfei1a7wET-15" value="Calculate Mean and Save as R0" style="rounded=0;whiteSpace=wrap;html=1;" vertex="1" parent="WIyWlLk6GJQsqaUBKTNV-1">
          <mxGeometry x="350" y="400" width="120" height="60" as="geometry" />
        </mxCell>
        <mxCell id="zYTko2imTGEfei1a7wET-17" style="edgeStyle=orthogonalEdgeStyle;rounded=0;orthogonalLoop=1;jettySize=auto;html=1;exitX=0.5;exitY=1;exitDx=0;exitDy=0;entryX=0.5;entryY=0;entryDx=0;entryDy=0;" edge="1" parent="WIyWlLk6GJQsqaUBKTNV-1" source="zYTko2imTGEfei1a7wET-19" target="zYTko2imTGEfei1a7wET-21">
          <mxGeometry relative="1" as="geometry" />
        </mxCell>
        <mxCell id="zYTko2imTGEfei1a7wET-19" value="HPPC Data" style="rounded=1;whiteSpace=wrap;html=1;fontSize=12;glass=0;strokeWidth=1;shadow=0;" vertex="1" parent="WIyWlLk6GJQsqaUBKTNV-1">
          <mxGeometry x="640" y="80" width="120" height="40" as="geometry" />
        </mxCell>
        <mxCell id="zYTko2imTGEfei1a7wET-20" style="edgeStyle=orthogonalEdgeStyle;rounded=0;orthogonalLoop=1;jettySize=auto;html=1;exitX=0.5;exitY=1;exitDx=0;exitDy=0;entryX=0.5;entryY=0;entryDx=0;entryDy=0;" edge="1" parent="WIyWlLk6GJQsqaUBKTNV-1" source="zYTko2imTGEfei1a7wET-21" target="zYTko2imTGEfei1a7wET-25">
          <mxGeometry relative="1" as="geometry" />
        </mxCell>
        <mxCell id="zYTko2imTGEfei1a7wET-21" value="Take Derivative of Current Wave form" style="rounded=0;whiteSpace=wrap;html=1;" vertex="1" parent="WIyWlLk6GJQsqaUBKTNV-1">
          <mxGeometry x="640" y="190" width="120" height="60" as="geometry" />
        </mxCell>
        <mxCell id="zYTko2imTGEfei1a7wET-33" style="edgeStyle=orthogonalEdgeStyle;rounded=0;orthogonalLoop=1;jettySize=auto;html=1;exitX=0.5;exitY=1;exitDx=0;exitDy=0;entryX=0.5;entryY=0;entryDx=0;entryDy=0;" edge="1" parent="WIyWlLk6GJQsqaUBKTNV-1" source="zYTko2imTGEfei1a7wET-25" target="zYTko2imTGEfei1a7wET-30">
          <mxGeometry relative="1" as="geometry" />
        </mxCell>
        <mxCell id="zYTko2imTGEfei1a7wET-25" value="Pair two consecutive peak positions" style="shape=parallelogram;perimeter=parallelogramPerimeter;whiteSpace=wrap;html=1;fixedSize=1;" vertex="1" parent="WIyWlLk6GJQsqaUBKTNV-1">
          <mxGeometry x="610" y="300" width="180" height="60" as="geometry" />
        </mxCell>
        <mxCell id="zYTko2imTGEfei1a7wET-40" style="edgeStyle=orthogonalEdgeStyle;rounded=0;orthogonalLoop=1;jettySize=auto;html=1;exitX=1;exitY=0.5;exitDx=0;exitDy=0;" edge="1" parent="WIyWlLk6GJQsqaUBKTNV-1" source="zYTko2imTGEfei1a7wET-30" target="zYTko2imTGEfei1a7wET-38">
          <mxGeometry relative="1" as="geometry" />
        </mxCell>
        <mxCell id="zYTko2imTGEfei1a7wET-30" value="Save this as an event" style="rounded=0;whiteSpace=wrap;html=1;" vertex="1" parent="WIyWlLk6GJQsqaUBKTNV-1">
          <mxGeometry x="640" y="450" width="120" height="60" as="geometry" />
        </mxCell>
        <mxCell id="zYTko2imTGEfei1a7wET-36" style="edgeStyle=orthogonalEdgeStyle;rounded=0;orthogonalLoop=1;jettySize=auto;html=1;exitX=1;exitY=0.5;exitDx=0;exitDy=0;entryX=0;entryY=0.5;entryDx=0;entryDy=0;" edge="1" parent="WIyWlLk6GJQsqaUBKTNV-1" source="zYTko2imTGEfei1a7wET-31" target="zYTko2imTGEfei1a7wET-35">
          <mxGeometry relative="1" as="geometry" />
        </mxCell>
        <mxCell id="zYTko2imTGEfei1a7wET-31" value="Find Settling time of Voltage for each event" style="ellipse;whiteSpace=wrap;html=1;" vertex="1" parent="WIyWlLk6GJQsqaUBKTNV-1">
          <mxGeometry x="910" y="80" width="130" height="90" as="geometry" />
        </mxCell>
        <mxCell id="zYTko2imTGEfei1a7wET-35" value="Save as&lt;div&gt;&amp;nbsp;TimeConstant = Rnet Cnet&lt;/div&gt;" style="rounded=0;whiteSpace=wrap;html=1;" vertex="1" parent="WIyWlLk6GJQsqaUBKTNV-1">
          <mxGeometry x="1140" y="95" width="150" height="60" as="geometry" />
        </mxCell>
        <mxCell id="zYTko2imTGEfei1a7wET-44" style="edgeStyle=orthogonalEdgeStyle;rounded=0;orthogonalLoop=1;jettySize=auto;html=1;exitX=1;exitY=0.5;exitDx=0;exitDy=0;entryX=0;entryY=0.5;entryDx=0;entryDy=0;" edge="1" parent="WIyWlLk6GJQsqaUBKTNV-1" source="zYTko2imTGEfei1a7wET-37" target="zYTko2imTGEfei1a7wET-43">
          <mxGeometry relative="1" as="geometry" />
        </mxCell>
        <mxCell id="zYTko2imTGEfei1a7wET-37" value="Get differnece between Peak voltage and Settling Voltage" style="ellipse;whiteSpace=wrap;html=1;" vertex="1" parent="WIyWlLk6GJQsqaUBKTNV-1">
          <mxGeometry x="910" y="195" width="130" height="90" as="geometry" />
        </mxCell>
        <mxCell id="zYTko2imTGEfei1a7wET-39" style="edgeStyle=orthogonalEdgeStyle;rounded=0;orthogonalLoop=1;jettySize=auto;html=1;exitX=1;exitY=0.5;exitDx=0;exitDy=0;entryX=0;entryY=0.5;entryDx=0;entryDy=0;" edge="1" parent="WIyWlLk6GJQsqaUBKTNV-1" source="zYTko2imTGEfei1a7wET-38" target="zYTko2imTGEfei1a7wET-31">
          <mxGeometry relative="1" as="geometry" />
        </mxCell>
        <mxCell id="zYTko2imTGEfei1a7wET-41" style="edgeStyle=orthogonalEdgeStyle;rounded=0;orthogonalLoop=1;jettySize=auto;html=1;exitX=1;exitY=0.5;exitDx=0;exitDy=0;entryX=0;entryY=0.5;entryDx=0;entryDy=0;" edge="1" parent="WIyWlLk6GJQsqaUBKTNV-1" source="zYTko2imTGEfei1a7wET-38" target="zYTko2imTGEfei1a7wET-37">
          <mxGeometry relative="1" as="geometry" />
        </mxCell>
        <mxCell id="zYTko2imTGEfei1a7wET-52" style="edgeStyle=orthogonalEdgeStyle;rounded=0;orthogonalLoop=1;jettySize=auto;html=1;exitX=1;exitY=0.5;exitDx=0;exitDy=0;entryX=0;entryY=0.5;entryDx=0;entryDy=0;" edge="1" parent="WIyWlLk6GJQsqaUBKTNV-1" source="zYTko2imTGEfei1a7wET-38" target="zYTko2imTGEfei1a7wET-42">
          <mxGeometry relative="1" as="geometry" />
        </mxCell>
        <mxCell id="zYTko2imTGEfei1a7wET-56" style="edgeStyle=orthogonalEdgeStyle;rounded=0;orthogonalLoop=1;jettySize=auto;html=1;exitX=1;exitY=0.5;exitDx=0;exitDy=0;entryX=0;entryY=0.5;entryDx=0;entryDy=0;" edge="1" parent="WIyWlLk6GJQsqaUBKTNV-1" source="zYTko2imTGEfei1a7wET-38" target="zYTko2imTGEfei1a7wET-55">
          <mxGeometry relative="1" as="geometry" />
        </mxCell>
        <mxCell id="zYTko2imTGEfei1a7wET-38" value="For each event" style="triangle;whiteSpace=wrap;html=1;" vertex="1" parent="WIyWlLk6GJQsqaUBKTNV-1">
          <mxGeometry x="810" y="200" width="60" height="80" as="geometry" />
        </mxCell>
        <mxCell id="zYTko2imTGEfei1a7wET-50" style="edgeStyle=orthogonalEdgeStyle;rounded=0;orthogonalLoop=1;jettySize=auto;html=1;exitX=1;exitY=0.5;exitDx=0;exitDy=0;entryX=0;entryY=0.5;entryDx=0;entryDy=0;" edge="1" parent="WIyWlLk6GJQsqaUBKTNV-1" source="zYTko2imTGEfei1a7wET-42" target="zYTko2imTGEfei1a7wET-48">
          <mxGeometry relative="1" as="geometry" />
        </mxCell>
        <mxCell id="zYTko2imTGEfei1a7wET-42" value="&lt;div&gt;&lt;span style=&quot;background-color: initial;&quot;&gt;Integrate Current in the Event until settle down voltage in event&lt;/span&gt;&lt;/div&gt;" style="ellipse;whiteSpace=wrap;html=1;" vertex="1" parent="WIyWlLk6GJQsqaUBKTNV-1">
          <mxGeometry x="910" y="320" width="130" height="90" as="geometry" />
        </mxCell>
        <mxCell id="zYTko2imTGEfei1a7wET-46" style="edgeStyle=orthogonalEdgeStyle;rounded=0;orthogonalLoop=1;jettySize=auto;html=1;exitX=1;exitY=0.5;exitDx=0;exitDy=0;entryX=0;entryY=0.5;entryDx=0;entryDy=0;" edge="1" parent="WIyWlLk6GJQsqaUBKTNV-1" source="zYTko2imTGEfei1a7wET-43" target="zYTko2imTGEfei1a7wET-45">
          <mxGeometry relative="1" as="geometry" />
        </mxCell>
        <mxCell id="zYTko2imTGEfei1a7wET-43" value="Divide by Change in Current" style="rounded=0;whiteSpace=wrap;html=1;" vertex="1" parent="WIyWlLk6GJQsqaUBKTNV-1">
          <mxGeometry x="1080" y="210" width="120" height="60" as="geometry" />
        </mxCell>
        <mxCell id="zYTko2imTGEfei1a7wET-45" value="Save as&lt;div&gt;&amp;nbsp;R1+R2&lt;/div&gt;" style="rounded=0;whiteSpace=wrap;html=1;" vertex="1" parent="WIyWlLk6GJQsqaUBKTNV-1">
          <mxGeometry x="1240.5" y="210" width="120" height="60" as="geometry" />
        </mxCell>
        <mxCell id="zYTko2imTGEfei1a7wET-51" style="edgeStyle=orthogonalEdgeStyle;rounded=0;orthogonalLoop=1;jettySize=auto;html=1;exitX=0.5;exitY=0;exitDx=0;exitDy=0;entryX=0.5;entryY=1;entryDx=0;entryDy=0;" edge="1" parent="WIyWlLk6GJQsqaUBKTNV-1" source="zYTko2imTGEfei1a7wET-47" target="zYTko2imTGEfei1a7wET-48">
          <mxGeometry relative="1" as="geometry" />
        </mxCell>
        <mxCell id="zYTko2imTGEfei1a7wET-47" value="Get differnece between Peak voltage and Settling Voltage" style="rounded=0;whiteSpace=wrap;html=1;" vertex="1" parent="WIyWlLk6GJQsqaUBKTNV-1">
          <mxGeometry x="1090" y="420" width="120" height="60" as="geometry" />
        </mxCell>
        <mxCell id="zYTko2imTGEfei1a7wET-54" style="edgeStyle=orthogonalEdgeStyle;rounded=0;orthogonalLoop=1;jettySize=auto;html=1;exitX=1;exitY=0.5;exitDx=0;exitDy=0;entryX=0;entryY=0.5;entryDx=0;entryDy=0;" edge="1" parent="WIyWlLk6GJQsqaUBKTNV-1" source="zYTko2imTGEfei1a7wET-48" target="zYTko2imTGEfei1a7wET-53">
          <mxGeometry relative="1" as="geometry" />
        </mxCell>
        <mxCell id="zYTko2imTGEfei1a7wET-48" value="Divide I/V" style="rounded=0;whiteSpace=wrap;html=1;" vertex="1" parent="WIyWlLk6GJQsqaUBKTNV-1">
          <mxGeometry x="1090" y="335" width="120" height="60" as="geometry" />
        </mxCell>
        <mxCell id="zYTko2imTGEfei1a7wET-53" value="Save as&lt;div&gt;&amp;nbsp;Cb (Polarisation Capacitance&lt;/div&gt;" style="rounded=0;whiteSpace=wrap;html=1;" vertex="1" parent="WIyWlLk6GJQsqaUBKTNV-1">
          <mxGeometry x="1241" y="340" width="120" height="60" as="geometry" />
        </mxCell>
        <mxCell id="zYTko2imTGEfei1a7wET-59" style="edgeStyle=orthogonalEdgeStyle;rounded=0;orthogonalLoop=1;jettySize=auto;html=1;exitX=1;exitY=0.5;exitDx=0;exitDy=0;entryX=0;entryY=0.5;entryDx=0;entryDy=0;" edge="1" parent="WIyWlLk6GJQsqaUBKTNV-1" source="zYTko2imTGEfei1a7wET-55" target="zYTko2imTGEfei1a7wET-58">
          <mxGeometry relative="1" as="geometry" />
        </mxCell>
        <mxCell id="zYTko2imTGEfei1a7wET-55" value="Find peaks involtage derivative in event" style="ellipse;whiteSpace=wrap;html=1;" vertex="1" parent="WIyWlLk6GJQsqaUBKTNV-1">
          <mxGeometry x="910" y="470" width="130" height="90" as="geometry" />
        </mxCell>
        <mxCell id="zYTko2imTGEfei1a7wET-61" style="edgeStyle=orthogonalEdgeStyle;rounded=0;orthogonalLoop=1;jettySize=auto;html=1;exitX=1;exitY=0.5;exitDx=0;exitDy=0;" edge="1" parent="WIyWlLk6GJQsqaUBKTNV-1" source="zYTko2imTGEfei1a7wET-58">
          <mxGeometry relative="1" as="geometry">
            <mxPoint x="1240" y="540" as="targetPoint" />
          </mxGeometry>
        </mxCell>
        <mxCell id="zYTko2imTGEfei1a7wET-58" value="Match delay with near current derivative peaks" style="rounded=0;whiteSpace=wrap;html=1;" vertex="1" parent="WIyWlLk6GJQsqaUBKTNV-1">
          <mxGeometry x="1090" y="510" width="120" height="60" as="geometry" />
        </mxCell>
        <mxCell id="zYTko2imTGEfei1a7wET-63" style="edgeStyle=orthogonalEdgeStyle;rounded=0;orthogonalLoop=1;jettySize=auto;html=1;exitX=0.5;exitY=0;exitDx=0;exitDy=0;entryX=0.5;entryY=1;entryDx=0;entryDy=0;" edge="1" parent="WIyWlLk6GJQsqaUBKTNV-1" source="zYTko2imTGEfei1a7wET-60" target="zYTko2imTGEfei1a7wET-62">
          <mxGeometry relative="1" as="geometry" />
        </mxCell>
        <mxCell id="zYTko2imTGEfei1a7wET-60" value="Divide&amp;nbsp;" style="rounded=0;whiteSpace=wrap;html=1;" vertex="1" parent="WIyWlLk6GJQsqaUBKTNV-1">
          <mxGeometry x="1241" y="510" width="120" height="60" as="geometry" />
        </mxCell>
        <mxCell id="zYTko2imTGEfei1a7wET-62" value="Save as R0" style="rounded=0;whiteSpace=wrap;html=1;" vertex="1" parent="WIyWlLk6GJQsqaUBKTNV-1">
          <mxGeometry x="1241" y="430" width="120" height="60" as="geometry" />
        </mxCell>
      </root>
    </mxGraphModel>
  </diagram>
</mxfile>
